<svg xmlns="http://www.w3.org/2000/svg" viewBox="0 0 204.41 198.73" id="Star"><g fill="#000000" class="color000000 svgShape"><path fill="#e78600" d="m100.06 9.49 26.73 64.89 51.6 3.78a9.79 9.79 0 0 1 6 16.87l-38.94 36.82 19.33 44.89-11.24 12.88a9.39 9.39 0 0 1-10.76 2.61 9.88 9.88 0 0 1-.73-.36l-45.47-24.51-45.48 24.51a9.79 9.79 0 0 1-14.21-10.71l10.81-49.31L8.76 95a9.72 9.72 0 0 1-1.9-11.75c1.47-2.76 12.06-14.8 12.06-14.8l47.45 5.9 21.22-49.23a18.84 18.84 0 0 1 2.63-4.26c1.64-2 9.84-11.37 9.84-11.37" class="colore70055 svgShape"></path><path fill="#ffbf66" d="m116.83 11.58 21.22 49.27 51.6 3.77a9.79 9.79 0 0 1 6 16.88l-38.94 36.81 10.8 49.31a9.79 9.79 0 0 1-14.2 10.72l-45.48-24.51-45.47 24.51a9.79 9.79 0 0 1-14.21-10.72L59 118.31 20 81.5a9.79 9.79 0 0 1 6-16.88l51.6-3.77 21.25-49.27a9.79 9.79 0 0 1 18 0" class="colorfaeded svgShape"></path><path fill="#4c63af" d="M203.37 68.87a15.78 15.78 0 0 0-13.67-9.93l-47.81-3.49-19.72-45.78a15.75 15.75 0 0 0-14-9.67 15.31 15.31 0 0 0-10.76 4h-.06l-.43.5a13.57 13.57 0 0 0-1.17 1.33c-1 1.16-8.3 9.45-9.94 11.5a24 24 0 0 0-3.42 5.57l-14.21 33L26 58.94a16.32 16.32 0 0 0-9 3.58h-.27l-2 2.25C11.35 68.5 3.47 77.6 1.86 80.62a15.32 15.32 0 0 0 3 18.53l36.61 34.62L31.36 180a15.32 15.32 0 0 0 3 13 15.68 15.68 0 0 0 12.08 5.83 15.37 15.37 0 0 0 7.34-1.87l42.8-23.16 42.79 23.06c.37.2.74.38 1.12.55a14.38 14.38 0 0 0 5.83 1.23 15.26 15.26 0 0 0 11.5-5.3L169 180.5a13.68 13.68 0 0 0 1-1.13 1.88 1.88 0 0 0 .16-.23l1.2-1.37-.11-.24a15.36 15.36 0 0 0 1.77-11.12l-9.59-43.78 24.82-23.48a15.83 15.83 0 0 0 1.38-1.47c3.43-4.17 11.24-13.53 11.24-13.53a15.24 15.24 0 0 0 2.5-15.28Zm-7.71 12.63-38.94 36.81 10.8 49.31a9.77 9.77 0 0 1-14.2 10.72L137.84 170a2.83 2.83 0 0 0-2.69 5l15.48 8.34a15.23 15.23 0 0 0 6.79 1.86l-3.87 4.44a9.67 9.67 0 0 1-7.23 3.35 8.7 8.7 0 0 1-3.53-.74 9.88 9.88 0 0 1-.73-.36l-45.48-24.53-45.48 24.51a9.68 9.68 0 0 1-4.65 1.2 9.82 9.82 0 0 1-9.56-11.91l10.81-49.31L8.76 95a9.72 9.72 0 0 1-1.9-11.75 56.64 56.64 0 0 1 4.65-6.12 15.34 15.34 0 0 0 4.61 8.45l2.7 2.55A2.83 2.83 0 0 0 22.71 84L20 81.5a9.79 9.79 0 0 1 6-16.88l51.6-3.77 21.25-49.27a9.79 9.79 0 0 1 18 0l21.22 49.27 51.6 3.77a9.79 9.79 0 0 1 5.99 16.88Z" class="color313943 svgShape"></path><path fill="#4c63af" d="M113.45 160.2a2.85 2.85 0 0 0 1.2 3.74l7.41 4a2.83 2.83 0 0 0 2.69-5l-7.41-4a2.84 2.84 0 0 0-3.89 1.25" class="color313943 svgShape"></path><path fill="#ffffff" d="M93.6 39.53a2.06 2.06 0 0 1-.76-.15 2 2 0 0 1-1.09-2.61L95 28.91a2 2 0 0 1 3.7 1.52l-3.23 7.86a2 2 0 0 1-1.87 1.24zm89.49 32.27h-.15L133.35 68l-22.57-53.15a3.07 3.07 0 0 0-2.9-1.92 3.08 3.08 0 0 0-2.9 2l-2.15 5.24a2 2 0 1 1-3.7-1.52l2.15-5.24a7.06 7.06 0 0 1 6.58-4.44 7.07 7.07 0 0 1 6.59 4.36l21.61 50.93 47.16 3.59a2 2 0 0 1-.15 4z" class="colorffffff svgShape"></path></g></svg>