<svg width="757" height="780" viewBox="0 0 757 780" fill="none" xmlns="http://www.w3.org/2000/svg">
<g filter="url(#filter0_d_2227_168)">
<path d="M734.962 367.481C734.962 398.539 690.299 423.31 682.643 451.928C674.717 481.566 700.783 525.303 685.771 551.25C670.545 577.572 619.464 576.772 598.134 598.134C576.803 619.496 577.572 670.545 551.25 685.771C525.303 700.784 481.566 674.724 451.928 682.643C423.291 690.3 398.52 734.962 367.481 734.962C336.442 734.962 311.653 690.3 283.035 682.643C253.397 674.724 209.66 700.784 183.712 685.771C157.39 670.545 158.191 619.464 136.829 598.134C115.467 576.803 64.4174 577.572 49.1919 551.25C34.1791 525.303 60.2451 481.566 52.3196 451.928C44.6693 423.291 0 398.52 0 367.481C0 336.442 44.6693 311.653 52.3196 283.035C60.2451 253.397 34.1791 209.66 49.1919 183.712C64.4174 157.39 115.498 158.191 136.829 136.829C158.16 115.467 157.39 64.4174 183.712 49.1919C209.66 34.1791 253.397 60.2451 283.035 52.3196C311.671 44.6693 336.449 0 367.481 0C398.514 0 423.31 44.6693 451.928 52.3196C481.566 60.2451 525.303 34.1791 551.25 49.1919C577.572 64.4236 576.772 115.498 598.134 136.835C619.496 158.172 670.545 157.39 685.771 183.712C700.783 209.66 674.717 253.397 682.643 283.035C690.299 311.653 734.962 336.43 734.962 367.481Z" fill="#92A1D4"/>
<path d="M675.881 450.119L675.88 450.12C673.559 458.801 673.813 468.132 674.954 477.178C675.885 484.556 677.482 492.223 679.007 499.546C679.346 501.174 679.682 502.786 680.006 504.373C681.83 513.31 683.312 521.597 683.503 529.13C683.694 536.627 682.58 542.786 679.712 547.744L679.711 547.745C676.781 552.812 671.93 556.917 665.303 560.531C658.641 564.163 650.693 567.033 642.035 569.909C640.4 570.452 638.736 570.996 637.054 571.547C630.041 573.841 622.721 576.236 615.995 579.035C607.631 582.516 599.461 586.898 593.18 593.188C586.903 599.475 582.526 607.645 579.048 616.01C576.255 622.724 573.864 630.029 571.572 637.029C571.017 638.723 570.469 640.399 569.921 642.045C567.043 650.7 564.171 658.646 560.536 665.305C556.92 671.93 552.813 676.78 547.745 679.711L547.744 679.712C542.786 682.581 536.627 683.694 529.13 683.504C521.597 683.313 513.31 681.832 504.372 680.008C502.783 679.684 501.17 679.348 499.539 679.009C492.219 677.484 484.553 675.888 477.178 674.957C468.133 673.815 458.802 673.561 450.121 675.88L450.12 675.881C441.645 678.147 433.86 683.023 426.746 688.502C421.158 692.806 415.59 697.805 410.233 702.615C408.791 703.91 407.365 705.19 405.958 706.44C399.152 712.483 392.664 717.925 386.126 721.871C379.626 725.795 373.521 727.962 367.481 727.962C361.442 727.962 355.336 725.795 348.833 721.871C342.294 717.925 335.804 712.483 328.998 706.439C327.587 705.187 326.157 703.904 324.712 702.606C319.358 697.799 313.792 692.803 308.209 688.503C301.097 683.024 293.314 678.147 284.844 675.881L284.842 675.88C276.161 673.561 266.83 673.815 257.784 674.957C250.409 675.888 242.744 677.484 235.424 679.009C233.793 679.348 232.18 679.684 230.59 680.008C221.653 681.832 213.366 683.313 205.833 683.504C198.336 683.694 192.176 682.581 187.218 679.712L187.217 679.711C182.151 676.781 178.046 671.931 174.432 665.303C170.8 658.642 167.93 650.693 165.054 642.035C164.511 640.401 163.966 638.737 163.416 637.055C161.122 630.042 158.727 622.722 155.928 615.995C152.447 607.631 148.065 599.461 141.775 593.18C135.488 586.903 127.317 582.526 118.953 579.048C112.239 576.255 104.934 573.864 97.9338 571.572C96.2398 571.017 94.5636 570.469 92.9179 569.921C84.2629 567.043 76.3168 564.171 69.6579 560.536C63.0325 556.92 58.1827 552.813 55.2513 547.745L55.2508 547.744C52.3822 542.786 51.2689 536.627 51.4594 529.13C51.6508 521.597 53.1328 513.31 54.9567 504.373C55.2806 502.785 55.6162 501.174 55.9554 499.545C57.4804 492.223 59.0772 484.555 60.0082 477.178C61.1498 468.132 61.4034 458.801 59.082 450.12C56.8174 441.644 51.9421 433.86 46.4631 426.746C42.1589 421.157 37.1579 415.588 32.3469 410.229C31.0535 408.789 29.7738 407.364 28.525 405.957C22.4811 399.151 17.0387 392.664 13.0917 386.126C9.16718 379.625 7 373.52 7 367.481C7 361.442 9.16729 355.336 13.092 348.834C17.0391 342.294 22.4816 335.805 28.5254 328.998C29.7768 327.588 31.0592 326.16 32.3555 324.716C37.1638 319.36 42.1614 313.794 46.4628 308.209C51.9416 301.096 56.8173 293.314 59.082 284.843C61.4034 276.162 61.1498 266.83 60.0082 257.784C59.0772 250.407 57.4804 242.74 55.9554 235.418C55.6162 233.789 55.2806 232.177 54.9567 230.59C53.1328 221.652 51.6508 213.365 51.4594 205.832C51.2689 198.335 52.3822 192.176 55.2508 187.218L55.2513 187.217C58.1818 182.151 63.0321 178.046 69.6598 174.432C76.3211 170.8 84.27 167.93 92.9278 165.054C94.5619 164.511 96.2259 163.966 97.9076 163.416C104.921 161.122 112.241 158.727 118.967 155.928C127.332 152.447 135.502 148.065 141.782 141.775C148.06 135.488 152.436 127.317 155.915 118.953C158.707 112.239 161.099 104.934 163.391 97.9341C163.945 96.2399 164.494 94.5637 165.041 92.9179C167.919 84.2629 170.792 76.3167 174.426 69.6579C178.042 63.0325 182.149 58.1827 187.217 55.2513L187.218 55.2508C192.176 52.3822 198.335 51.2689 205.832 51.4594C213.365 51.6508 221.652 53.1328 230.59 54.9567C232.177 55.2806 233.789 55.6162 235.418 55.9554C242.74 57.4804 250.407 59.0772 257.784 60.0082C266.83 61.1498 276.162 61.4034 284.843 59.082C293.318 56.8175 301.103 51.9422 308.218 46.4632C313.807 42.1586 319.378 37.1571 324.737 32.3456C326.177 31.0527 327.602 29.7734 329.007 28.5252C335.814 22.4811 342.302 17.0387 348.84 13.0916C355.34 9.16699 361.444 7 367.481 7C373.519 7 379.624 9.16711 386.126 13.092C392.665 17.0391 399.155 22.4817 405.963 28.5256C407.372 29.7765 408.8 31.0585 410.243 32.3542C415.6 37.163 421.167 42.1611 426.753 46.4629C433.866 51.9417 441.649 56.8173 450.12 59.082C458.801 61.4034 468.132 61.1498 477.178 60.0082C484.555 59.0772 492.223 57.4804 499.545 55.9554C501.174 55.6162 502.785 55.2806 504.373 54.9567C513.31 53.1328 521.597 51.6508 529.13 51.4594C536.627 51.2689 542.786 52.3822 547.744 55.2508C552.811 58.1828 556.917 63.0342 560.53 69.6624C564.163 76.3242 567.033 84.2731 569.909 92.9309C570.452 94.5653 570.996 96.2297 571.547 97.9117C573.841 104.925 576.236 112.244 579.035 118.971C582.516 127.336 586.897 135.506 593.187 141.788C599.474 148.068 607.645 152.444 616.01 155.923C622.727 158.716 630.034 161.108 637.036 163.399C638.728 163.953 640.402 164.501 642.045 165.047C650.701 167.924 658.647 170.795 665.305 174.428C671.93 178.043 676.78 182.15 679.711 187.217L679.712 187.218C682.58 192.176 683.694 198.335 683.503 205.832C683.312 213.365 681.83 221.652 680.006 230.59C679.682 232.177 679.346 233.788 679.007 235.416C677.482 242.739 675.885 250.407 674.954 257.784C673.813 266.831 673.559 276.162 675.88 284.843L675.881 284.844C678.147 293.315 683.023 301.096 688.503 308.208C692.802 313.789 697.797 319.352 702.604 324.705C703.902 326.151 705.186 327.582 706.439 328.993C712.483 335.799 717.924 342.288 721.871 348.828C725.795 355.33 727.962 361.438 727.962 367.481C727.962 373.526 725.795 379.635 721.871 386.138C717.924 392.677 712.483 399.166 706.44 405.972C705.186 407.384 703.901 408.815 702.602 410.261C697.796 415.613 692.802 421.175 688.503 426.755C683.024 433.867 678.147 441.648 675.881 450.119Z" stroke="#4C63AF" stroke-width="14"/>
</g>
<g filter="url(#filter1_d_2227_168)">
<path d="M734.962 367.481C734.962 398.539 690.299 423.31 682.643 451.928C674.717 481.566 700.783 525.303 685.771 551.25C670.545 577.572 619.464 576.772 598.134 598.134C576.803 619.496 577.572 670.545 551.25 685.771C525.303 700.784 481.566 674.724 451.928 682.643C423.291 690.3 398.52 734.962 367.481 734.962C336.442 734.962 311.653 690.3 283.035 682.643C253.397 674.724 209.66 700.784 183.712 685.771C157.39 670.545 158.191 619.464 136.829 598.134C115.467 576.803 64.4174 577.572 49.1919 551.25C34.1791 525.303 60.2451 481.566 52.3196 451.928C44.6693 423.291 0 398.52 0 367.481C0 336.442 44.6693 311.653 52.3196 283.035C60.2451 253.397 34.1791 209.66 49.1919 183.712C64.4174 157.39 115.498 158.191 136.829 136.829C158.16 115.467 157.39 64.4174 183.712 49.1919C209.66 34.1791 253.397 60.2451 283.035 52.3196C311.671 44.6693 336.449 0 367.481 0C398.514 0 423.31 44.6693 451.928 52.3196C481.566 60.2451 525.303 34.1791 551.25 49.1919C577.572 64.4236 576.772 115.498 598.134 136.835C619.496 158.172 670.545 157.39 685.771 183.712C700.783 209.66 674.717 253.397 682.643 283.035C690.299 311.653 734.962 336.43 734.962 367.481Z" fill="#92A1D4"/>
<path d="M675.881 450.119L675.88 450.12C673.559 458.801 673.813 468.132 674.954 477.178C675.885 484.556 677.482 492.223 679.007 499.546C679.346 501.174 679.682 502.786 680.006 504.373C681.83 513.31 683.312 521.597 683.503 529.13C683.694 536.627 682.58 542.786 679.712 547.744L679.711 547.745C676.781 552.812 671.93 556.917 665.303 560.531C658.641 564.163 650.693 567.033 642.035 569.909C640.4 570.452 638.736 570.996 637.054 571.547C630.041 573.841 622.721 576.236 615.995 579.035C607.631 582.516 599.461 586.898 593.18 593.188C586.903 599.475 582.526 607.645 579.048 616.01C576.255 622.724 573.864 630.029 571.572 637.029C571.017 638.723 570.469 640.399 569.921 642.045C567.043 650.7 564.171 658.646 560.536 665.305C556.92 671.93 552.813 676.78 547.745 679.711L547.744 679.712C542.786 682.581 536.627 683.694 529.13 683.504C521.597 683.313 513.31 681.832 504.372 680.008C502.783 679.684 501.17 679.348 499.539 679.009C492.219 677.484 484.553 675.888 477.178 674.957C468.133 673.815 458.802 673.561 450.121 675.88L450.12 675.881C441.645 678.147 433.86 683.023 426.746 688.502C421.158 692.806 415.59 697.805 410.233 702.615C408.791 703.91 407.365 705.19 405.958 706.44C399.152 712.483 392.664 717.925 386.126 721.871C379.626 725.795 373.521 727.962 367.481 727.962C361.442 727.962 355.336 725.795 348.833 721.871C342.294 717.925 335.804 712.483 328.998 706.439C327.587 705.187 326.157 703.904 324.712 702.606C319.358 697.799 313.792 692.803 308.209 688.503C301.097 683.024 293.314 678.147 284.844 675.881L284.842 675.88C276.161 673.561 266.83 673.815 257.784 674.957C250.409 675.888 242.744 677.484 235.424 679.009C233.793 679.348 232.18 679.684 230.59 680.008C221.653 681.832 213.366 683.313 205.833 683.504C198.336 683.694 192.176 682.581 187.218 679.712L187.217 679.711C182.151 676.781 178.046 671.931 174.432 665.303C170.8 658.642 167.93 650.693 165.054 642.035C164.511 640.401 163.966 638.737 163.416 637.055C161.122 630.042 158.727 622.722 155.928 615.995C152.447 607.631 148.065 599.461 141.775 593.18C135.488 586.903 127.317 582.526 118.953 579.048C112.239 576.255 104.934 573.864 97.9338 571.572C96.2398 571.017 94.5636 570.469 92.9179 569.921C84.2629 567.043 76.3168 564.171 69.6579 560.536C63.0325 556.92 58.1827 552.813 55.2513 547.745L55.2508 547.744C52.3822 542.786 51.2689 536.627 51.4594 529.13C51.6508 521.597 53.1328 513.31 54.9567 504.373C55.2806 502.785 55.6162 501.174 55.9554 499.545C57.4804 492.223 59.0772 484.555 60.0082 477.178C61.1498 468.132 61.4034 458.801 59.082 450.12C56.8174 441.644 51.9421 433.86 46.4631 426.746C42.1589 421.157 37.1579 415.588 32.3469 410.229C31.0535 408.789 29.7738 407.364 28.525 405.957C22.4811 399.151 17.0387 392.664 13.0917 386.126C9.16718 379.625 7 373.52 7 367.481C7 361.442 9.16729 355.336 13.092 348.834C17.0391 342.294 22.4816 335.805 28.5254 328.998C29.7768 327.588 31.0592 326.16 32.3555 324.716C37.1638 319.36 42.1614 313.794 46.4628 308.209C51.9416 301.096 56.8173 293.314 59.082 284.843C61.4034 276.162 61.1498 266.83 60.0082 257.784C59.0772 250.407 57.4804 242.74 55.9554 235.418C55.6162 233.789 55.2806 232.177 54.9567 230.59C53.1328 221.652 51.6508 213.365 51.4594 205.832C51.2689 198.335 52.3822 192.176 55.2508 187.218L55.2513 187.217C58.1818 182.151 63.0321 178.046 69.6598 174.432C76.3211 170.8 84.27 167.93 92.9278 165.054C94.5619 164.511 96.2259 163.966 97.9076 163.416C104.921 161.122 112.241 158.727 118.967 155.928C127.332 152.447 135.502 148.065 141.782 141.775C148.06 135.488 152.436 127.317 155.915 118.953C158.707 112.239 161.099 104.934 163.391 97.9341C163.945 96.2399 164.494 94.5637 165.041 92.9179C167.919 84.2629 170.792 76.3167 174.426 69.6579C178.042 63.0325 182.149 58.1827 187.217 55.2513L187.218 55.2508C192.176 52.3822 198.335 51.2689 205.832 51.4594C213.365 51.6508 221.652 53.1328 230.59 54.9567C232.177 55.2806 233.789 55.6162 235.418 55.9554C242.74 57.4804 250.407 59.0772 257.784 60.0082C266.83 61.1498 276.162 61.4034 284.843 59.082C293.318 56.8175 301.103 51.9422 308.218 46.4632C313.807 42.1586 319.378 37.1571 324.737 32.3456C326.177 31.0527 327.602 29.7734 329.007 28.5252C335.814 22.4811 342.302 17.0387 348.84 13.0916C355.34 9.16699 361.444 7 367.481 7C373.519 7 379.624 9.16711 386.126 13.092C392.665 17.0391 399.155 22.4817 405.963 28.5256C407.372 29.7765 408.8 31.0585 410.243 32.3542C415.6 37.163 421.167 42.1611 426.753 46.4629C433.866 51.9417 441.649 56.8173 450.12 59.082C458.801 61.4034 468.132 61.1498 477.178 60.0082C484.555 59.0772 492.223 57.4804 499.545 55.9554C501.174 55.6162 502.785 55.2806 504.373 54.9567C513.31 53.1328 521.597 51.6508 529.13 51.4594C536.627 51.2689 542.786 52.3822 547.744 55.2508C552.811 58.1828 556.917 63.0342 560.53 69.6624C564.163 76.3242 567.033 84.2731 569.909 92.9309C570.452 94.5653 570.996 96.2297 571.547 97.9117C573.841 104.925 576.236 112.244 579.035 118.971C582.516 127.336 586.897 135.506 593.187 141.788C599.474 148.068 607.645 152.444 616.01 155.923C622.727 158.716 630.034 161.108 637.036 163.399C638.728 163.953 640.402 164.501 642.045 165.047C650.701 167.924 658.647 170.795 665.305 174.428C671.93 178.043 676.78 182.15 679.711 187.217L679.712 187.218C682.58 192.176 683.694 198.335 683.503 205.832C683.312 213.365 681.83 221.652 680.006 230.59C679.682 232.177 679.346 233.788 679.007 235.416C677.482 242.739 675.885 250.407 674.954 257.784C673.813 266.831 673.559 276.162 675.88 284.843L675.881 284.844C678.147 293.315 683.023 301.096 688.503 308.208C692.802 313.789 697.797 319.352 702.604 324.705C703.902 326.151 705.186 327.582 706.439 328.993C712.483 335.799 717.924 342.288 721.871 348.828C725.795 355.33 727.962 361.438 727.962 367.481C727.962 373.526 725.795 379.635 721.871 386.138C717.924 392.677 712.483 399.166 706.44 405.972C705.186 407.384 703.901 408.815 702.602 410.261C697.796 415.613 692.802 421.175 688.503 426.755C683.024 433.867 678.147 441.648 675.881 450.119Z" stroke="#4C63AF" stroke-width="14"/>
</g>
<path d="M467.854 353.413V353.725L467.878 353.996L467.879 354.006C467.881 354.029 467.885 354.085 467.889 354.173C467.898 354.35 467.91 354.653 467.914 355.077C467.921 355.925 467.897 357.251 467.755 358.994C467.472 362.481 466.717 367.634 464.801 373.97C460.984 386.598 452.502 404.119 433.622 422.634L433.597 422.659L433.572 422.684C423.53 432.732 412.812 442.528 399.375 454.021L399.375 454.021C390.477 461.632 379.153 465.815 367.444 465.815C355.735 465.815 344.411 461.632 335.513 454.021L330.963 459.341L335.513 454.021C322.073 442.525 311.345 432.731 301.319 422.687L301.294 422.662L301.269 422.637C282.41 404.122 273.94 386.602 270.129 373.973C268.217 367.636 267.464 362.483 267.181 358.996C267.04 357.253 267.016 355.927 267.024 355.079C267.028 354.655 267.04 354.351 267.049 354.175C267.054 354.087 267.057 354.031 267.059 354.007C267.059 354.007 267.059 354.006 267.059 354.006L267.111 353.43L267.059 352.822C267.026 352.428 267.021 351.986 267.021 351.192C267.021 325.179 289.12 302.432 316.319 302.432C335.994 302.432 353.285 315.177 361.163 331.704L367.482 344.96L373.8 331.704C381.678 315.177 398.969 302.432 418.65 302.432C445.839 302.432 467.917 325.174 467.917 351.192C467.917 351.392 467.908 351.615 467.892 352.009L467.89 352.053C467.875 352.396 467.854 352.893 467.854 353.413Z" fill="#FF9494" stroke="#4C63AF" stroke-width="14"/>
<path d="M467.854 353.413V353.725L467.878 353.996L467.879 354.006C467.881 354.029 467.885 354.085 467.889 354.173C467.898 354.35 467.91 354.653 467.914 355.077C467.921 355.925 467.897 357.251 467.755 358.994C467.472 362.481 466.717 367.634 464.801 373.97C460.984 386.598 452.502 404.119 433.622 422.634L433.597 422.659L433.572 422.684C423.53 432.732 412.812 442.528 399.375 454.021L399.375 454.021C390.477 461.632 379.153 465.815 367.444 465.815C355.735 465.815 344.411 461.632 335.513 454.021L330.963 459.341L335.513 454.021C322.073 442.525 311.345 432.731 301.319 422.687L301.294 422.662L301.269 422.637C282.41 404.122 273.94 386.602 270.129 373.973C268.217 367.636 267.464 362.483 267.181 358.996C267.04 357.253 267.016 355.927 267.024 355.079C267.028 354.655 267.04 354.351 267.049 354.175C267.054 354.087 267.057 354.031 267.059 354.007C267.059 354.007 267.059 354.006 267.059 354.006L267.111 353.43L267.059 352.822C267.026 352.428 267.021 351.986 267.021 351.192C267.021 325.179 289.12 302.432 316.319 302.432C335.994 302.432 353.285 315.177 361.163 331.704L367.482 344.96L373.8 331.704C381.678 315.177 398.969 302.432 418.65 302.432C445.839 302.432 467.917 325.174 467.917 351.192C467.917 351.392 467.908 351.615 467.892 352.009L467.89 352.053C467.875 352.396 467.854 352.893 467.854 353.413Z" fill="#92A1D4" stroke="#4C63AF" stroke-width="14"/>
<defs>
<filter id="filter0_d_2227_168" x="0" y="0" width="756.963" height="779.962" filterUnits="userSpaceOnUse" color-interpolation-filters="sRGB">
<feFlood flood-opacity="0" result="BackgroundImageFix"/>
<feColorMatrix in="SourceAlpha" type="matrix" values="0 0 0 0 0 0 0 0 0 0 0 0 0 0 0 0 0 0 127 0" result="hardAlpha"/>
<feOffset dx="22" dy="45"/>
<feComposite in2="hardAlpha" operator="out"/>
<feColorMatrix type="matrix" values="0 0 0 0 0.0980392 0 0 0 0 0.0823529 0 0 0 0 0.290196 0 0 0 1 0"/>
<feBlend mode="normal" in2="BackgroundImageFix" result="effect1_dropShadow_2227_168"/>
<feBlend mode="normal" in="SourceGraphic" in2="effect1_dropShadow_2227_168" result="shape"/>
</filter>
<filter id="filter1_d_2227_168" x="0" y="0" width="756.963" height="779.962" filterUnits="userSpaceOnUse" color-interpolation-filters="sRGB">
<feFlood flood-opacity="0" result="BackgroundImageFix"/>
<feColorMatrix in="SourceAlpha" type="matrix" values="0 0 0 0 0 0 0 0 0 0 0 0 0 0 0 0 0 0 127 0" result="hardAlpha"/>
<feOffset dx="22" dy="45"/>
<feComposite in2="hardAlpha" operator="out"/>
<feColorMatrix type="matrix" values="0 0 0 0 0.0980392 0 0 0 0 0.0823529 0 0 0 0 0.290196 0 0 0 1 0"/>
<feBlend mode="normal" in2="BackgroundImageFix" result="effect1_dropShadow_2227_168"/>
<feBlend mode="normal" in="SourceGraphic" in2="effect1_dropShadow_2227_168" result="shape"/>
</filter>
</defs>
</svg>
